<svg width="58" height="58" viewBox="0 0 58 58" fill="none" xmlns="http://www.w3.org/2000/svg">
<g id="Group">
<path id="Vector" d="M29 55.5762C43.6704 55.5762 55.5631 43.6776 55.5631 29C55.5631 14.3224 43.6704 2.42383 29 2.42383C14.3296 2.42383 2.43687 14.3224 2.43687 29C2.43687 43.6776 14.3296 55.5762 29 55.5762Z" stroke="#FF707A" stroke-width="3.81538" stroke-miterlimit="10" stroke-linecap="round"/>
<path id="Vector_2" d="M5.15648 38.4917C10.0896 41.3392 13.41 40.2951 15.4971 38.5392C17.4419 36.894 18.3748 34.3471 18.3116 31.7844C18.2957 31.1833 18.2957 30.6138 18.3116 30.0759C18.4222 24.5867 22.2486 20.1415 27.4189 18.3065C34.6131 15.7596 31.2927 3.54724 31.2927 3.54724" stroke="#FF707A" stroke-width="3.81538" stroke-miterlimit="10" stroke-linecap="round"/>
<path id="Vector_3" d="M54.9307 28.3038C46.7562 26.6428 41.3962 27.0224 38.7557 27.4337C37.2694 27.671 35.8464 28.3038 34.8028 29.3795C33.2533 30.9772 32.8738 32.8597 33.0319 34.6156C33.3323 37.8111 35.957 40.184 39.1193 40.7376C44.4161 41.6868 46.1238 46.828 46.1238 46.828" stroke="#FF707A" stroke-width="3.81538" stroke-miterlimit="10" stroke-linecap="round"/>
</g>
</svg>
