<svg width="40" height="57" viewBox="0 0 40 57" fill="none" xmlns="http://www.w3.org/2000/svg">
<g id="Group 39898">
<path id="Vector" d="M19.8486 25.7032C26.4688 25.7032 31.8355 20.3338 31.8355 13.7104C31.8355 7.0869 26.4688 1.71753 19.8486 1.71753C13.2284 1.71753 7.86163 7.0869 7.86163 13.7104C7.86163 20.3338 13.2284 25.7032 19.8486 25.7032Z" stroke="#F657BC" stroke-width="3.13043" stroke-miterlimit="10"/>
<path id="Vector_2" d="M12.1125 23.4703C11.7622 23.665 11.4249 23.8597 11.1006 24.0673C5.18497 27.7794 1.78607 34.4378 1.78607 41.4206V52.7904C1.78607 54.1662 2.90174 55.2824 4.27686 55.2824H35.7231C37.0982 55.2824 38.2139 54.1662 38.2139 52.7904V41.4076C38.2139 36.5793 36.6053 31.8289 33.4658 28.1558C30.2096 24.3529 27.0053 22.8862 27.0053 22.8862" stroke="#F657BC" stroke-width="3.13043" stroke-miterlimit="10"/>
<path id="Vector_3" d="M16.7957 36.5793L19.4811 31.1021L22.8021 36.6572L28.7048 37.7604L24.2291 41.9138L26.0194 48.624L19.9481 45.0028L13.9935 48.5072L15.213 41.9138L10.7244 37.994L16.7957 36.5793Z" stroke="#F657BC" stroke-width="2.34783" stroke-miterlimit="10" stroke-linecap="round" stroke-linejoin="round"/>
</g>
</svg>
