<svg width="49" height="58" viewBox="0 0 49 58" fill="none" xmlns="http://www.w3.org/2000/svg">
<path id="Vector" d="M4.85769 11.1201C11.7613 11.8415 18.3416 6.56527 21.6739 3.32596C22.9112 2.1236 24.8374 2.10946 26.0888 3.29768C32.1769 9.08316 40.81 10.3704 44.4797 10.6533C45.478 10.724 46.2373 11.5586 46.2373 12.5629V30.273C46.2373 40.4294 40.2476 49.6947 30.9256 53.5847C27.7901 54.9002 25.4561 55.5509 25.4561 55.5509C24.9499 55.5084 24.4578 55.4519 23.9657 55.3811C11.93 53.6413 2.9033 43.0039 2.7627 30.7681L2.81894 13.0722C2.80487 11.9405 3.74692 11.0069 4.85769 11.1201Z" stroke="#FF9432" stroke-width="3.86441" stroke-miterlimit="10" stroke-linecap="round"/>
</svg>
