<svg width="18" height="18" viewBox="0 0 18 18" fill="none" xmlns="http://www.w3.org/2000/svg">
<g id="streamline:ai-upscale-spark" clip-path="url(#clip0_0_155)">
<g id="Group">
<path id="Vector" d="M13.8088 13.8083L17.3574 17.3569M8.35735 16.0711C9.37041 16.0711 10.3735 15.8716 11.3095 15.4839C12.2454 15.0963 13.0958 14.528 13.8122 13.8117C14.5285 13.0953 15.0967 12.2449 15.4844 11.309C15.8721 10.3731 16.0716 9.36992 16.0716 8.35686C16.0716 7.34381 15.8721 6.34067 15.4844 5.40473C15.0967 4.46879 14.5285 3.61838 13.8122 2.90204C13.0958 2.1857 12.2454 1.61747 11.3095 1.22979C10.3735 0.842114 9.37041 0.642578 8.35735 0.642578C6.3114 0.642578 4.34924 1.45533 2.90253 2.90204C1.45582 4.34875 0.643066 6.31091 0.643066 8.35686C0.643066 10.4028 1.45582 12.365 2.90253 13.8117C4.34924 15.2584 6.3114 16.0711 8.35735 16.0711Z" stroke="black" stroke-width="1.28571" stroke-linecap="round" stroke-linejoin="round"/>
<path id="Vector_2" d="M4.43591 8.77784C3.96277 8.69556 3.96277 8.0167 4.43591 7.93441C5.2731 7.7882 6.04782 7.39614 6.66145 6.80816C7.27507 6.22018 7.69983 5.46288 7.88163 4.6327L7.90991 4.50284C8.01277 4.03484 8.67748 4.03227 8.7842 4.49898L8.81891 4.6507C9.00842 5.47754 9.43786 6.23001 10.0534 6.81372C10.6689 7.39744 11.4431 7.78641 12.2788 7.93184C12.7545 8.01541 12.7545 8.69684 12.2788 8.78041C11.4433 8.92607 10.6694 9.31515 10.0541 9.89885C9.43887 10.4825 9.00962 11.2349 8.8202 12.0616L8.78548 12.2133C8.67877 12.68 8.01405 12.6761 7.9112 12.2094L7.88291 12.0808C7.70148 11.25 7.27673 10.492 6.66283 9.90354C6.04892 9.31505 5.27367 8.924 4.43591 8.77784Z" stroke="black" stroke-width="1.28571" stroke-linecap="round" stroke-linejoin="round"/>
</g>
</g>
<defs>
<clipPath id="clip0_0_155">
<rect width="18" height="18" fill="white"/>
</clipPath>
</defs>
</svg>
